<svg width="226" height="24" fill="none" xmlns="http://www.w3.org/2000/svg"><g clip-path="url(#prefix__clip0_53_185)"><path d="M41.302 24c5.084 0 9.205-4.115 9.205-9.191 0-5.077-4.121-9.192-9.205-9.192s-9.205 4.115-9.205 9.192c0 5.076 4.12 9.191 9.205 9.191z" fill="#40BCF4"/><path d="M25.68 24c5.085 0 9.206-4.115 9.206-9.191 0-5.077-4.121-9.192-9.205-9.192s-9.206 4.115-9.206 9.192c0 5.076 4.122 9.191 9.206 9.191z" fill="#00E054"/><path d="M10.06 24c5.083 0 9.205-4.115 9.205-9.191 0-5.077-4.122-9.192-9.205-9.192-5.084 0-9.206 4.115-9.206 9.192C.854 19.884 4.976 24 10.06 24z" fill="#FF8000"/><path fill-rule="evenodd" clip-rule="evenodd" d="M17.87 19.675a9.139 9.139 0 01-1.395-4.867c0-1.787.511-3.455 1.395-4.866a9.138 9.138 0 011.395 4.867c0 1.787-.51 3.455-1.395 4.866zM33.491 9.942a9.138 9.138 0 011.395 4.867c0 1.787-.51 3.455-1.395 4.866a9.139 9.139 0 01-1.394-4.867c0-1.787.51-3.455 1.394-4.866zM108.111 6.05a7.68 7.68 0 001.689-.18c1.097-.148 1.512-.627 1.69-2.093a24.37 24.37 0 00.178-2.065h4.446V6.05h4.09v4.817h-4.09v4.16c0 2.992.444 3.321 2.993 3.321h1.097v5.057h-2.727c-5.187 0-6.461-1.885-6.461-7.301v-5.237H103.855v4.16c0 2.992.445 3.321 2.994 3.321h1.097v5.057h-2.728c-5.187 0-6.46-1.885-6.46-7.301v-5.237h-2.905V6.35c.651 0 1.096-.06 1.689-.18 1.096-.15 1.512-.628 1.69-2.094.088-.719.147-1.646.177-2.364h4.446V6.05h4.256zm-46.49-4.099h5.572V18.05h8.921v5.356H61.62V1.95zm24.747 21.904c-5.957 0-8.743-3.352-8.743-8.708v-.508c0-5.566 3.467-8.947 8.832-8.947 6.077 0 8.655 3.98 8.655 8.677v1.945H82.99c.266 2.095 1.452 3.232 3.526 3.232 1.512 0 2.342-.659 2.757-1.646h5.72c-.948 3.65-3.615 5.955-8.625 5.955zM82.99 12.903h6.787c-.237-1.945-1.245-3.082-3.26-3.082-2.016 0-3.172 1.047-3.527 3.082zm47.261 10.952c-5.957 0-8.744-3.352-8.744-8.708v-.508c0-5.566 3.468-8.947 8.833-8.947 6.076 0 8.655 3.98 8.655 8.677v1.945h-12.123c.267 2.095 1.453 3.232 3.527 3.232 1.512 0 2.342-.659 2.757-1.646h5.72c-.948 3.65-3.616 5.955-8.625 5.955zm-3.379-10.952h6.788c-.237-1.945-1.245-3.082-3.261-3.082-2.015 0-3.171 1.047-3.527 3.082zm14.345 10.503V6.05h4.328l.741 3.56c.563-2.692 2.311-3.8 5.394-3.8h.978v5.715h-2.015c-3.142 0-3.913 1.108-3.913 4.19v7.69h-5.513zm18.495-2.902l-.416 2.902h-4.712V.366h5.335v8.467c.919-1.974 2.638-3.141 5.039-3.141 3.853.03 6.699 2.693 6.699 8.557v.54c0 5.894-2.579 9.066-6.818 9.066-2.608 0-4.297-1.317-5.127-3.351zm6.58-5.746v-.419c0-2.753-1.304-4.129-3.172-4.129-1.956 0-3.29 1.526-3.29 4.07v.389c0 3.022 1.304 4.428 3.261 4.428 1.986 0 3.201-1.287 3.201-4.339zm7.023.39v-.54c0-5.894 3.616-8.916 8.684-8.916 5.158 0 8.656 3.112 8.656 8.916v.54c0 5.774-3.439 8.707-8.685 8.707-5.573 0-8.655-2.933-8.655-8.708zm11.975-.06v-.48c0-2.842-1.186-4.308-3.261-4.308-2.016 0-3.349 1.406-3.349 4.308v.48c0 2.662 1.333 4.069 3.319 4.069s3.291-1.346 3.291-4.07zm13.959 3.41l-3.142 4.908h-6.343l6.343-9.037-5.75-8.318h6.106l2.816 4.398 2.815-4.398h6.077l-5.721 8.258 6.106 9.097h-6.166l-3.141-4.907zm20.54 1.886c-.86 2.035-2.579 3.351-5.217 3.351-4.15 0-6.758-3.022-6.758-8.977v-.509c0-5.835 2.845-8.528 6.787-8.528 2.49 0 4.121 1.048 4.98 2.813V.365h5.305v23.041h-4.594l-.503-3.022zm-.149-5.656v-.389c0-2.633-1.274-4.129-3.201-4.129-2.015 0-3.201 1.406-3.201 4.13v.388c0 3.112 1.274 4.37 3.112 4.37 1.986 0 3.29-1.437 3.29-4.37z" fill="#fff"/></g><defs><clipPath id="prefix__clip0_53_185"><path fill="#fff" transform="translate(.854)" d="M0 0h224.17v24H0z"/></clipPath></defs></svg>