<svg width="630" height="630" xmlns="http://www.w3.org/2000/svg" xmlns:xlink="http://www.w3.org/1999/xlink"><defs><linearGradient x1="50%" y1="0%" x2="50%" y2="100%" id="prefix__a"><stop stop-color="#EBBB14" offset="0%"/><stop stop-color="#B25400" offset="100%"/></linearGradient><linearGradient x1="50%" y1="0%" x2="50%" y2="100%" id="prefix__d"><stop stop-color="#F9E583" offset="0%"/><stop stop-color="#DE9800" offset="100%"/></linearGradient><linearGradient x1="50%" y1="0%" x2="50%" y2="100%" id="prefix__e"><stop stop-color="#F9E68B" offset="0%"/><stop stop-color="#F3CD32" offset="100%"/></linearGradient><filter x="-9.1%" y="-6.3%" width="136.5%" height="116.9%" filterUnits="objectBoundingBox" id="prefix__b"><feOffset dx="20" dy="10" in="SourceAlpha" result="shadowOffsetOuter1"/><feGaussianBlur stdDeviation="10" in="shadowOffsetOuter1" result="shadowBlurOuter1"/><feColorMatrix values="0 0 0 0 0 0 0 0 0 0 0 0 0 0 0 0 0 0 0.0530211976 0" in="shadowBlurOuter1"/></filter><path d="M346 604v26H153c-14.36 0-26-11.64-26-26V183c0-14.36 11.64-26 26-26h167c14.36 0 26 11.64 26 26v421z" id="prefix__c"/></defs><g transform="translate(77.5)" fill="none" fill-rule="evenodd"><rect fill="url(#prefix__a)" x="256" width="219" height="630" rx="26"/><use fill="#000" filter="url(#prefix__b)" xlink:href="#prefix__c"/><use fill="url(#prefix__d)" xlink:href="#prefix__c"/><path d="M219 604v26H26c-14.36 0-26-11.64-26-26V341c0-14.36 11.64-26 26-26h167c14.36 0 26 11.64 26 26v263z" fill="url(#prefix__e)"/></g></svg>