<svg xmlns="http://www.w3.org/2000/svg" version="1.1" id="prefix__Layer_1" x="0" y="0" viewBox="0 0 640 640" xml:space="preserve"><style>.prefix__st1,.prefix__st2{fill:#fff;stroke:#000;stroke-width:7;stroke-miterlimit:10}.prefix__st2{fill:none}</style><path fill="#fff" d="M171.7 621.7L20 18.4l600 168.5"/><path class="prefix__st1" d="M245.8 362.4l37.9 150.9M395.5 404.8l-149.7-42.4M283.7 513.3l111.8-108.5M283.7 513.3L134 470.9"/><path class="prefix__st2" d="M134 470.9l37.9 151 111.8-108.6"/><path class="prefix__st1" d="M134 470.9l111.8-108.5M245.8 362.4l111.9-108.6M357.7 253.8l111.8-108.5M319.8 102.9l37.9 150.9M357.7 253.8l-149.8-42.3M207.9 211.5l37.9 150.9M245.8 362.4L96.1 320M96.1 320L134 470.9M58.2 169.1L96.1 320M207.9 211.5L58.2 169.1M96.1 320l111.8-108.5M207.9 211.4l111.9-108.5M319.8 102.9L170 60.5M170 60.5l37.9 150.9"/><path class="prefix__st2" d="M58.2 169.1l-37.9-151L170 60.5"/><path class="prefix__st1" d="M58.2 169.1L170 60.5"/><path class="prefix__st2" d="M507.4 296.2l111.8-108.5-149.7-42.4"/><path class="prefix__st1" d="M469.5 145.3l37.9 150.9M507.4 296.2l-149.7-42.4M357.7 253.8l37.8 151M395.5 404.8l111.9-108.6M469.5 145.3l-149.7-42.4"/></svg>