<svg width="51" height="52" viewBox="0 0 51 52" fill="none" xmlns="http://www.w3.org/2000/svg">
<path d="M50.8522 25.337C50.4333 11.9335 39.6465 1.14457 26.2456 0.725662V0.711914H25.437H24.6285V0.725662C11.2275 1.14457 0.44066 11.9335 0.0218309 25.337H0V26.9544H0.0218309C0.109154 29.7566 0.649266 32.4447 1.57263 34.9484L1.5508 34.9573L2.16853 36.4518L2.18228 36.4462C6.03179 45.1276 14.5976 51.2511 24.6293 51.5649V51.5786H26.2464V51.5649C39.6473 51.146 50.4342 40.3579 50.853 26.9536H50.8667V25.3362H50.853L50.8522 25.337ZM43.5639 25.337C43.4596 23.4576 43.0691 21.6541 42.436 19.9696L47.6835 17.6373C48.6262 20.099 49.1461 22.682 49.2343 25.337H43.5639ZM33.1271 42.8131C34.8485 42.0068 36.422 40.9385 37.7973 39.66L41.6881 43.5514C39.6958 45.4147 37.427 46.906 34.9302 47.9929L33.1271 42.8131ZM15.1603 47.6362C12.9692 46.5873 10.9648 45.2158 9.1819 43.5474L13.0726 39.6559C14.317 40.814 15.7239 41.7998 17.2561 42.5745L15.1603 47.6362ZM17.4032 10.0719C15.9058 10.8118 14.5248 11.7524 13.2958 12.8587L9.1819 8.74397C10.9648 7.07561 12.9692 5.70405 15.1603 4.65516L17.4032 10.0719ZM34.8663 4.27102C37.3882 5.35954 39.6788 6.8605 41.6873 8.73993L37.5725 12.8554C36.1171 11.5461 34.4499 10.4697 32.6274 9.68288L34.8655 4.27183L34.8663 4.27102ZM38.7263 13.9892L42.8314 9.88344C44.5722 11.7435 45.9887 13.8445 47.0536 16.1477L41.7996 18.4824C41.0032 16.8302 39.9626 15.3171 38.7263 13.9892ZM31.8739 11.1175C33.5468 11.8251 35.0749 12.794 36.4284 14.0006L33.1077 17.3219C31.2448 15.7013 28.8636 14.6605 26.2456 14.4817V9.83734C28.1934 9.93034 30.0829 10.3598 31.8739 11.1175ZM32.5611 33.2752C30.6578 35.1789 28.1279 36.227 25.4362 36.227C22.7445 36.227 20.2146 35.1789 18.3112 33.2752C16.4079 31.3715 15.36 28.8411 15.36 26.1489C15.36 23.4567 16.4079 20.9263 18.3112 19.0226C20.2146 17.1189 22.7445 16.0708 25.4362 16.0708C28.1279 16.0708 30.6578 17.1189 32.5611 19.0226C34.4645 20.9263 35.5124 23.4567 35.5124 26.1489C35.5124 28.8411 34.4645 31.3715 32.5611 33.2752ZM24.6276 14.4817C22.0079 14.6605 19.6251 15.7021 17.7614 17.3251L14.4407 14.0038C15.795 12.7948 17.3248 11.8251 18.9993 11.1167C20.7903 10.359 22.6807 9.92953 24.6276 9.83653V14.4809V14.4817ZM12.1428 13.9933C10.8653 15.3665 9.79721 16.9386 8.99108 18.6571L3.71044 16.3822C4.78662 13.9884 6.23959 11.8098 8.0378 9.88748L12.1428 13.9933ZM10.1966 19.9219C10.9445 18.1533 11.9827 16.5472 13.2869 15.1376L16.6181 18.4695C14.9946 20.3335 13.9515 22.7168 13.772 25.3378H8.92963C9.04283 23.4656 9.46651 21.6477 10.1966 19.9227V19.9219ZM13.7712 26.9544C13.9499 29.5762 14.9913 31.9603 16.6149 33.8251L13.0832 37.3576C11.8744 36.003 10.9049 34.4729 10.1966 32.7981C9.41153 30.9413 8.97976 28.9778 8.90942 26.9544H13.772H13.7712ZM14.2159 38.5116L17.7582 34.9687C19.6227 36.5933 22.0063 37.6358 24.6276 37.8153V42.8818C22.6798 42.7888 20.7903 42.3594 18.9993 41.6017C17.231 40.8536 15.6252 39.8152 14.2159 38.5108V38.5116ZM26.2447 37.8153C28.8644 37.6366 31.2464 36.595 33.1101 34.9727L36.6524 38.5156C35.2439 39.8176 33.6398 40.8552 31.8731 41.6025C30.0821 42.3602 28.1925 42.7896 26.2447 42.8826V37.8161V37.8153ZM38.9309 38.5067C40.1316 37.1732 41.1374 35.6609 41.9031 34.0144L47.0391 36.1728C45.975 38.4639 44.5641 40.5552 42.8305 42.4071L38.9309 38.5067ZM40.6758 32.7973C39.9667 34.4737 38.9956 36.0046 37.786 37.3608L34.2542 33.8284C35.8802 31.9627 36.9233 29.577 37.1012 26.9536H41.9638C41.8926 28.977 41.4617 30.9405 40.6766 32.7973H40.6758ZM37.1003 25.3362C36.9208 22.7135 35.877 20.3287 34.251 18.4638L37.5814 15.1327C38.8872 16.5431 39.927 18.1508 40.6758 19.9211C41.4059 21.6469 41.8296 23.464 41.9428 25.3362H37.1003ZM33.3608 3.68067L31.1163 9.10789C29.5735 8.60002 27.9403 8.29352 26.2456 8.21912V2.34469C28.6914 2.42556 31.0758 2.87358 33.3608 3.68148V3.68067ZM24.6285 8.21912C22.6103 8.30727 20.6779 8.72537 18.8837 9.42005L16.6424 4.00658C19.1901 2.99246 21.8705 2.43526 24.6285 2.34388V8.21912ZM3.09917 17.8799L8.37092 20.1508C7.77745 21.7835 7.41118 23.5247 7.31011 25.3378H1.64055C1.72545 22.7702 2.21462 20.2688 3.09917 17.8807V17.8799ZM1.64055 26.9544H7.29151C7.35053 28.7821 7.678 30.541 8.23832 32.1932L3.06845 34.3298C2.20249 31.9659 1.72464 29.4929 1.64055 26.9536V26.9544ZM8.82695 33.7006C9.60882 35.4676 10.6632 37.0867 11.9382 38.5035L8.03861 42.4039C6.22018 40.4606 4.7559 38.2536 3.67648 35.8291L8.82695 33.7006ZM16.6424 48.2848L18.7309 43.2401C20.5679 43.9712 22.5529 44.4095 24.6285 44.5009V49.9475C21.8705 49.8561 19.1901 49.2989 16.6424 48.2848ZM26.2456 44.5009C28.1295 44.4184 29.939 44.0488 31.6313 43.435L33.4255 48.5881C31.1211 49.4097 28.7149 49.8658 26.2456 49.9475V44.5009ZM47.6713 34.6848L42.5209 32.5199C43.1507 30.7739 43.5194 28.9034 43.5825 26.9552H49.2343C49.1461 29.6207 48.6222 32.2142 47.6721 34.6848H47.6713Z" fill="white"/>
</svg>
