<svg width="104" height="28" fill="none" xmlns="http://www.w3.org/2000/svg"><path fill-rule="evenodd" clip-rule="evenodd" d="M23.143 23.877l-1.585-1.794c.515-.48.984-1.008 1.4-1.578l1.966 1.362a13.566 13.566 0 01-1.781 2.01zM3.128 21.872l1.97-1.357c.42.573.892 1.104 1.411 1.585L4.92 23.89a13.556 13.556 0 01-1.792-2.018zm1.8-17.77l1.586 1.793c-.52.482-.994 1.013-1.414 1.587l-1.968-1.36a13.582 13.582 0 011.795-2.02zm20.035 2.085l-1.972 1.355A11.154 11.154 0 0021.6 5.955l1.591-1.787c.656.612 1.25 1.288 1.773 2.02zm-.512 11.489c.232-.656.405-1.34.51-2.047l2.375.294c-.13.9-.348 1.772-.647 2.606l-2.238-.853zm-.196.513l2.236.853c-.34.837-.76 1.632-1.253 2.375l-1.968-1.363c.385-.586.716-1.21.985-1.865zm-1.84 2.129l-1.885-1.51a8.06 8.06 0 001.327-2.77l2.354.543a10.467 10.467 0 01-1.796 3.737zm-3.586 3.022l-1.044-2.177a8.156 8.156 0 002.402-1.926l1.886 1.51a10.575 10.575 0 01-3.244 2.593zm.584.31a11.139 11.139 0 001.735-1.202l1.583 1.793a13.52 13.52 0 01-2.208 1.531l-1.11-2.122zm-2.46 1.01a10.974 10.974 0 001.975-.754l1.108 2.121c-.796.4-1.636.723-2.513.96l-.57-2.327zm-2.632.39c.72-.02 1.421-.107 2.1-.257l.569 2.324c-.863.196-1.756.307-2.672.326l.003-2.393zm-2.652-.248c.68.148 1.384.233 2.104.248l-.004 2.395a13.434 13.434 0 01-2.675-.32l.575-2.323zm-2.516-.88c.63.311 1.293.563 1.983.75l-.576 2.325a13.365 13.365 0 01-2.522-.956l1.115-2.118zm-.486-.254l-1.115 2.119a13.485 13.485 0 01-2.22-1.534l1.588-1.789a11.1 11.1 0 001.747 1.204zm-.824-4.453a8.149 8.149 0 002.395 1.934l-1.051 2.174a10.57 10.57 0 01-3.235-2.604l1.89-1.504zm-4.013-2.67l2.354-.535a8.063 8.063 0 001.319 2.775L5.61 20.289a10.472 10.472 0 01-1.781-3.744zm-.038 1.64c.272.66.605 1.29.993 1.879l-1.971 1.358a13.432 13.432 0 01-1.26-2.39l2.238-.847zm-.706-2.577c.104.712.277 1.402.51 2.064l-2.24.847c-.3-.84-.518-1.718-.647-2.624l2.377-.287zm.511-5.283a10.983 10.983 0 00-.511 2.065L.71 12.1c.13-.907.348-1.785.649-2.625l2.238.85zm.196-.513l-2.237-.85c.341-.842.765-1.643 1.262-2.39l1.97 1.36c-.39.59-.723 1.22-.995 1.88zm1.88-2.18l1.886 1.506a8.068 8.068 0 00-1.343 2.74l-2.357-.54a10.485 10.485 0 011.814-3.706zm3.57-2.985l1.048 2.176a8.142 8.142 0 00-2.385 1.889L6.018 7.205a10.574 10.574 0 013.226-2.558zm-.568-.32a11.11 11.11 0 00-1.75 1.204L5.34 3.741a13.507 13.507 0 012.222-1.534l1.113 2.12zm2.473-1.003c-.691.187-1.356.438-1.987.749L8.05 1.953c.8-.398 1.645-.72 2.525-.954l.573 2.325zm2.64-.375c-.721.015-1.425.098-2.107.246L11.11.87c.865-.192 1.76-.3 2.679-.316v2.394zm2.681.27a11.025 11.025 0 00-2.132-.268V.557c.93.021 1.837.137 2.711.339l-.579 2.322zm2.506.898A10.98 10.98 0 0017 3.353l.58-2.323c.876.24 1.716.567 2.511.971l-1.117 2.116zm.484.26l1.118-2.118c.787.441 1.524.959 2.204 1.543L21.19 5.589a11.118 11.118 0 00-1.731-1.213zm.703 4.356a8.145 8.145 0 00-2.38-1.897l1.055-2.172a10.574 10.574 0 013.218 2.569l-1.893 1.5zm4.038 2.64l-2.359.532a8.074 8.074 0 00-1.334-2.745l1.891-1.5a10.469 10.469 0 011.802 3.713zm.077-1.507a10.996 10.996 0 00-.976-1.871l1.974-1.355c.49.746.906 1.543 1.242 2.382l-2.24.844zm-5.934-5.442l-1.055 2.173a8.037 8.037 0 00-2.99-.683V3.499c1.44.037 2.806.364 4.045.925zm-4.593-.925v2.415a8.031 8.031 0 00-2.964.671L9.738 4.41a10.44 10.44 0 014.012-.91zM3.516 14c0-.729.075-1.44.217-2.128l2.356.54a8.093 8.093 0 00-.02 3.061l-2.358.536A10.484 10.484 0 013.516 14zm6.164 9.564l1.051-2.174a8.034 8.034 0 003.005.696L13.73 24.5c-1.44-.04-2.81-.37-4.05-.937zm4.6.937l.005-2.415a8.04 8.04 0 003.006-.684l1.044 2.178a10.438 10.438 0 01-4.055.921zm-.255-2.957c-4.16 0-7.545-3.384-7.545-7.544s3.385-7.544 7.544-7.544c4.16 0 7.544 3.384 7.544 7.544s-3.384 7.544-7.544 7.544zM24.532 14c0 .7-.07 1.383-.201 2.045l-2.356-.544a8.094 8.094 0 00-.01-3.061l2.358-.532c.137.676.21 1.376.21 2.092zm-.062-3.62l2.24-.844c.296.836.51 1.709.635 2.61l-2.377.284a10.955 10.955 0 00-.498-2.05zM.574 14c0-.457.023-.91.068-1.355l2.377.29a11.153 11.153 0 000 2.128l-2.378.287A13.607 13.607 0 01.574 14zm26.901 0c0 .465-.023.925-.07 1.378l-2.378-.294c.035-.357.054-.718.054-1.084 0-.346-.018-.687-.049-1.025l2.379-.283c.042.43.064.866.064 1.308zM14.025 0c-7.72 0-14 6.28-14 14s6.28 14 14 14c7.719 0 14-6.28 14-14s-6.281-14-14-14z" fill="#fff"/><path d="M59.193 18.766a6.431 6.431 0 01-2.19-1.694l-2.075 1.685a8.832 8.832 0 006.957 3.17c3.324 0 6.042-1.929 6.042-5.018 0-2.482-1.413-3.65-4.91-4.438l-1.812-.408c-1.657-.399-2.264-.698-2.264-1.658s1.168-1.812 2.717-1.812a4.982 4.982 0 013.977 1.694l2.129-1.63a7.38 7.38 0 00-6.087-2.645c-3.325 0-5.807 1.974-5.807 4.602 0 2.31 1.26 3.505 4.593 4.239l1.63.371c1.757.39 2.8.662 2.8 1.957s-1.278 2.201-3 2.201a6.43 6.43 0 01-2.7-.616zM43.396 12.162l-2.092-5.897h-3.28l5.716 15.4h3.171l5.743-15.4h-3.17l-2.093 5.916-.32.925-.003.007c-.716 2.067-1.236 3.566-1.679 4.92a209.357 209.357 0 00-1.993-5.87zM85.482 10.967l-3.107.625c-.543-1.812-1.658-2.953-3.352-2.953-2.346 0-3.759 2.02-3.759 5.344 0 3.325 1.477 5.354 3.696 5.354 1.939 0 3.198-1.133 3.76-3.832l2.762.471C84.83 19.98 82.457 22 78.942 22c-4.203 0-7.03-3.28-7.03-7.98 0-4.702 2.854-7.972 7.111-7.972a6.477 6.477 0 016.46 4.919z" fill="#fff"/><path fill-rule="evenodd" clip-rule="evenodd" d="M96.525 21.964c4.221 0 7.02-3.306 7.02-7.98 0-4.675-2.826-7.972-7.02-7.972-4.195 0-7.066 3.297-7.066 7.971 0 4.674 2.844 7.98 7.066 7.98zm0-2.627c-2.329 0-3.715-2.066-3.715-5.354 0-3.26 1.414-5.344 3.715-5.344 2.3 0 3.623 2.056 3.623 5.344 0 3.288-1.295 5.354-3.623 5.354z" fill="#fff"/></svg>