<svg width="800" height="800" fill="none" xmlns="http://www.w3.org/2000/svg"><path fill-rule="evenodd" clip-rule="evenodd" d="M375 .59c-1.925.222-8.675.896-15 1.497-63.619 6.044-127.969 29.109-181.886 65.19-56.207 37.614-101.242 87.666-132.095 146.811-23.84 45.699-36.83 87.748-43.687 141.412-2.753 21.55-2.517 70.181.45 92.639 6.144 46.487 17.72 85.558 37.216 125.609 20.479 42.069 42.339 73.289 73.93 105.58 32.348 33.066 65.881 57.519 107.639 78.495 42.728 21.463 89.088 34.933 138.933 40.368 6.928.756 23.624 1.309 39.5 1.309 43.771 0 74.51-4.421 115.277-16.581 64.043-19.102 123.175-54.897 170.301-103.09 31.665-32.382 53.385-63.187 73.75-104.596 19.694-40.045 31.713-80.362 37.889-127.094 2.968-22.458 3.204-71.089.451-92.639-6.335-49.572-18.018-89.411-38.337-130.727-17.111-34.793-34.84-61.423-59.431-89.273-35.456-40.154-75.519-70.683-123.991-94.488C533.898 20.381 494.669 8.891 444 2.378 433.131.981 382.893-.321 375 .59zm39.377 186.786c2.004 3.133 8.868 11.192 15.252 17.91 26.217 27.587 43.972 53.943 57.47 85.314 10.049 23.355 19.526 55.59 22.02 74.9 1.94 15.022 1.656 49.389-.529 64-6.203 41.48-22.548 79.052-48.286 111-8.414 10.444-29.212 31.231-35.465 35.448-3.62 2.441-3.64 2.496-6.7 18-2.38 12.054-7.139 42.419-7.139 45.544 0 .28-2.25.508-5 .508-4.095 0-5-.317-5-1.75 0-1.797-4.32-40.644-5.554-49.944-.677-5.106-.854-5.331-10.431-13.245-41.198-34.042-71.727-81.73-83.584-130.561-4.115-16.947-5.699-31.384-5.649-51.5.111-45.555 9.134-84.411 29.142-125.5 14.899-30.596 35.906-58.377 59.576-78.786 8.694-7.496 14.238-14.685 15.052-19.517 1.316-7.811 1.49-7.742 6.416 2.537 2.621 5.47 6.405 12.509 8.409 15.642zm-9.749 164.22c-1.521 4.794-2.652 32.859-3.794 94.138-.989 53.14-.984 68.228.027 76.324 2.137 17.127 7.188 33.716 11.796 38.741l2.477 2.701-.603-25.5c-1.473-62.325-4.569-142.397-6.61-170.938-1.037-14.517-2.064-19.338-3.293-15.466z" fill="#13AA52"/></svg>