<svg width="95" height="24" fill="none" xmlns="http://www.w3.org/2000/svg"><g clip-path="url(#prefix__clip0_53_196)"><path d="M21.203 22.149l-1.118-3.04s-1.817 2.027-4.541 2.027c-2.411 0-4.123-2.096-4.123-5.45 0-4.297 2.166-5.834 4.297-5.834 3.074 0 4.052 1.991 4.89 4.542l1.119 3.493C22.844 21.275 24.94 24 30.984 24c4.332 0 7.266-1.327 7.266-4.82 0-2.83-1.607-4.297-4.611-4.996l-2.236-.489c-1.537-.35-1.99-.978-1.99-2.026 0-1.188.942-1.887 2.48-1.887 1.676 0 2.584.63 2.724 2.131l3.493-.419c-.28-3.144-2.445-4.436-6.008-4.436-3.144 0-6.218 1.187-6.218 4.995 0 2.375 1.153 3.878 4.052 4.576l2.376.56c1.781.418 2.375 1.152 2.375 2.165 0 1.292-1.258 1.816-3.633 1.816-3.528 0-4.995-1.851-5.834-4.401l-1.153-3.493C22.6 8.734 20.26 7.058 15.613 7.058c-5.135 0-7.86 3.248-7.86 8.768 0 5.31 2.725 8.174 7.616 8.174 3.947 0 5.834-1.851 5.834-1.851zm-14.95-1.642c-.349.105-.698.174-1.152.174-.839 0-1.433-.384-1.433-1.397V.244H0v19.913c0 2.62 1.817 3.704 3.948 3.704.698 0 1.362-.105 2.2-.315l.105-3.04zm44.189-.56c-.908.63-1.677.944-2.725.944-1.327 0-2.06-.698-2.06-2.41v-8.175h4.82V7.44h-4.786V3.563l-3.703.454v3.424h-2.34v2.865h2.34v8.943c0 3.215 1.851 4.75 4.856 4.75 1.642 0 3.109-.313 4.262-.977l-.664-3.074zm3.186 1.258c0 1.433 1.118 2.586 2.55 2.586 1.503 0 2.62-1.153 2.62-2.586 0-1.467-1.117-2.584-2.62-2.584-1.432 0-2.55 1.117-2.55 2.584zm8.968-10.9v13.276h3.668V10.306h4.122V7.44h-4.122V5.974c0-2.2.943-2.9 2.48-2.9 1.083 0 1.817.245 2.656.7l.593-3.075C71.015.245 69.863 0 68.465 0c-3.075 0-5.87 1.467-5.87 5.834v1.607h-2.34v2.865h2.34zm22.407.316c-.42-2.62-2.131-3.564-4.367-3.564S76.479 8.07 75.64 10.55l-.454-3.109h-2.97v16.14h3.669v-9.118c0-3.11 1.607-4.297 3.319-4.297 1.781 0 2.515 1.188 2.515 3.11V23.58h3.633v-9.153c0-3.074 1.642-4.262 3.354-4.262 1.747 0 2.48 1.188 2.48 3.109v10.306h3.668V11.983c0-3.459-2.026-4.926-4.716-4.926-2.27 0-4.297 1.013-5.135 3.563z" fill="#fff"/></g><defs><clipPath id="prefix__clip0_53_196"><path fill="#fff" d="M0 0h94.854v24H0z"/></clipPath></defs></svg>